<?xml version="1.0" encoding="UTF-8" standalone="no"?>
<!DOCTYPE svg PUBLIC "-//W3C//DTD SVG 1.1//EN"
 "http://www.w3.org/Graphics/SVG/1.1/DTD/svg11.dtd">
<!-- Generated by graphviz version 2.40.1 (20161225.0304)
 -->
<!-- Title: snakemake_dag Pages: 1 -->
<svg width="392pt" height="260pt"
 viewBox="0.00 0.00 392.00 260.00" xmlns="http://www.w3.org/2000/svg" xmlns:xlink="http://www.w3.org/1999/xlink">
<g id="graph0" class="graph" transform="scale(1 1) rotate(0) translate(4 256)">
<title>snakemake_dag</title>
<polygon fill="#ffffff" stroke="transparent" points="-4,4 -4,-256 388,-256 388,4 -4,4"/>
<!-- 0 -->
<g id="node1" class="node">
<title>0</title>
<path fill="none" stroke="#d85656" stroke-width="2" stroke-dasharray="5,2" d="M42,-180C42,-180 12,-180 12,-180 6,-180 0,-174 0,-168 0,-168 0,-156 0,-156 0,-150 6,-144 12,-144 12,-144 42,-144 42,-144 48,-144 54,-150 54,-156 54,-156 54,-168 54,-168 54,-174 48,-180 42,-180"/>
<text text-anchor="middle" x="27" y="-159" font-family="sans" font-size="10.00" fill="#000000">pathway</text>
</g>
<!-- 1 -->
<g id="node2" class="node">
<title>1</title>
<path fill="none" stroke="#d87556" stroke-width="2" stroke-dasharray="5,2" d="M114,-108C114,-108 84,-108 84,-108 78,-108 72,-102 72,-96 72,-96 72,-84 72,-84 72,-78 78,-72 84,-72 84,-72 114,-72 114,-72 120,-72 126,-78 126,-84 126,-84 126,-96 126,-96 126,-102 120,-108 114,-108"/>
<text text-anchor="middle" x="99" y="-87" font-family="sans" font-size="10.00" fill="#000000">ortho</text>
</g>
<!-- 2 -->
<g id="node3" class="node">
<title>2</title>
<path fill="none" stroke="#ced856" stroke-width="2" stroke-dasharray="5,2" d="M261,-252C261,-252 231,-252 231,-252 225,-252 219,-246 219,-240 219,-240 219,-228 219,-228 219,-222 225,-216 231,-216 231,-216 261,-216 261,-216 267,-216 273,-222 273,-228 273,-228 273,-240 273,-240 273,-246 267,-252 261,-252"/>
<text text-anchor="middle" x="246" y="-231" font-family="sans" font-size="10.00" fill="#000000">entrezID</text>
</g>
<!-- 4 -->
<g id="node5" class="node">
<title>4</title>
<path fill="none" stroke="#88d856" stroke-width="2" stroke-dasharray="5,2" d="M186,-180C186,-180 156,-180 156,-180 150,-180 144,-174 144,-168 144,-168 144,-156 144,-156 144,-150 150,-144 156,-144 156,-144 186,-144 186,-144 192,-144 198,-150 198,-156 198,-156 198,-168 198,-168 198,-174 192,-180 186,-180"/>
<text text-anchor="middle" x="171" y="-159" font-family="sans" font-size="10.00" fill="#000000">function</text>
</g>
<!-- 2&#45;&gt;4 -->
<g id="edge3" class="edge">
<title>2&#45;&gt;4</title>
<path fill="none" stroke="#c0c0c0" stroke-width="2" d="M227.0743,-215.8314C218.0143,-207.1337 207.0191,-196.5783 197.1735,-187.1265"/>
<polygon fill="#c0c0c0" stroke="#c0c0c0" stroke-width="2" points="199.5574,-184.5633 189.9196,-180.1628 194.7096,-189.613 199.5574,-184.5633"/>
</g>
<!-- 6 -->
<g id="node7" class="node">
<title>6</title>
<path fill="none" stroke="#56d86b" stroke-width="2" stroke-dasharray="5,2" d="M263.8703,-180C263.8703,-180 228.1297,-180 228.1297,-180 222.1297,-180 216.1297,-174 216.1297,-168 216.1297,-168 216.1297,-156 216.1297,-156 216.1297,-150 222.1297,-144 228.1297,-144 228.1297,-144 263.8703,-144 263.8703,-144 269.8703,-144 275.8703,-150 275.8703,-156 275.8703,-156 275.8703,-168 275.8703,-168 275.8703,-174 269.8703,-180 263.8703,-180"/>
<text text-anchor="middle" x="246" y="-159" font-family="sans" font-size="10.00" fill="#000000">sequentie</text>
</g>
<!-- 2&#45;&gt;6 -->
<g id="edge5" class="edge">
<title>2&#45;&gt;6</title>
<path fill="none" stroke="#c0c0c0" stroke-width="2" d="M246,-215.8314C246,-208.131 246,-198.9743 246,-190.4166"/>
<polygon fill="#c0c0c0" stroke="#c0c0c0" stroke-width="2" points="249.5001,-190.4132 246,-180.4133 242.5001,-190.4133 249.5001,-190.4132"/>
</g>
<!-- 9 -->
<g id="node10" class="node">
<title>9</title>
<path fill="none" stroke="#56c1d8" stroke-width="2" stroke-dasharray="5,2" d="M336,-180C336,-180 306,-180 306,-180 300,-180 294,-174 294,-168 294,-168 294,-156 294,-156 294,-150 300,-144 306,-144 306,-144 336,-144 336,-144 342,-144 348,-150 348,-156 348,-156 348,-168 348,-168 348,-174 342,-180 336,-180"/>
<text text-anchor="middle" x="321" y="-159" font-family="sans" font-size="10.00" fill="#000000">names</text>
</g>
<!-- 2&#45;&gt;9 -->
<g id="edge8" class="edge">
<title>2&#45;&gt;9</title>
<path fill="none" stroke="#c0c0c0" stroke-width="2" d="M264.9257,-215.8314C273.9857,-207.1337 284.9809,-196.5783 294.8265,-187.1265"/>
<polygon fill="#c0c0c0" stroke="#c0c0c0" stroke-width="2" points="297.2904,-189.613 302.0804,-180.1628 292.4426,-184.5633 297.2904,-189.613"/>
</g>
<!-- 3 -->
<g id="node4" class="node">
<title>3</title>
<path fill="none" stroke="#d8bc56" stroke-width="2" stroke-dasharray="5,2" d="M78,-252C78,-252 48,-252 48,-252 42,-252 36,-246 36,-240 36,-240 36,-228 36,-228 36,-222 42,-216 48,-216 48,-216 78,-216 78,-216 84,-216 90,-222 90,-228 90,-228 90,-240 90,-240 90,-246 84,-252 78,-252"/>
<text text-anchor="middle" x="63" y="-231" font-family="sans" font-size="10.00" fill="#000000">lpID</text>
</g>
<!-- 3&#45;&gt;0 -->
<g id="edge1" class="edge">
<title>3&#45;&gt;0</title>
<path fill="none" stroke="#c0c0c0" stroke-width="2" d="M53.9157,-215.8314C49.9385,-207.8771 45.1845,-198.369 40.7861,-189.5723"/>
<polygon fill="#c0c0c0" stroke="#c0c0c0" stroke-width="2" points="43.8093,-187.7923 36.2066,-180.4133 37.5483,-190.9228 43.8093,-187.7923"/>
</g>
<!-- 5 -->
<g id="node6" class="node">
<title>5</title>
<path fill="none" stroke="#68d856" stroke-width="2" stroke-dasharray="5,2" d="M114,-180C114,-180 84,-180 84,-180 78,-180 72,-174 72,-168 72,-168 72,-156 72,-156 72,-150 78,-144 84,-144 84,-144 114,-144 114,-144 120,-144 126,-150 126,-156 126,-156 126,-168 126,-168 126,-174 120,-180 114,-180"/>
<text text-anchor="middle" x="99" y="-159" font-family="sans" font-size="10.00" fill="#000000">kegginf</text>
</g>
<!-- 3&#45;&gt;5 -->
<g id="edge4" class="edge">
<title>3&#45;&gt;5</title>
<path fill="none" stroke="#c0c0c0" stroke-width="2" d="M72.0843,-215.8314C76.0615,-207.8771 80.8155,-198.369 85.2139,-189.5723"/>
<polygon fill="#c0c0c0" stroke="#c0c0c0" stroke-width="2" points="88.4517,-190.9228 89.7934,-180.4133 82.1907,-187.7923 88.4517,-190.9228"/>
</g>
<!-- 5&#45;&gt;1 -->
<g id="edge2" class="edge">
<title>5&#45;&gt;1</title>
<path fill="none" stroke="#c0c0c0" stroke-width="2" d="M99,-143.8314C99,-136.131 99,-126.9743 99,-118.4166"/>
<polygon fill="#c0c0c0" stroke="#c0c0c0" stroke-width="2" points="102.5001,-118.4132 99,-108.4133 95.5001,-118.4133 102.5001,-118.4132"/>
</g>
<!-- 7 -->
<g id="node8" class="node">
<title>7</title>
<path fill="none" stroke="#56d88a" stroke-width="2" d="M300,-108C300,-108 270,-108 270,-108 264,-108 258,-102 258,-96 258,-96 258,-84 258,-84 258,-78 264,-72 270,-72 270,-72 300,-72 300,-72 306,-72 312,-78 312,-84 312,-84 312,-96 312,-96 312,-102 306,-108 300,-108"/>
<text text-anchor="middle" x="285" y="-87" font-family="sans" font-size="10.00" fill="#000000">comb</text>
</g>
<!-- 8 -->
<g id="node9" class="node">
<title>8</title>
<path fill="none" stroke="#56d8a9" stroke-width="2" stroke-dasharray="5,2" d="M372,-108C372,-108 342,-108 342,-108 336,-108 330,-102 330,-96 330,-96 330,-84 330,-84 330,-78 336,-72 342,-72 342,-72 372,-72 372,-72 378,-72 384,-78 384,-84 384,-84 384,-96 384,-96 384,-102 378,-108 372,-108"/>
<text text-anchor="middle" x="357" y="-87" font-family="sans" font-size="10.00" fill="#000000">pmids</text>
</g>
<!-- 10 -->
<g id="node11" class="node">
<title>10</title>
<path fill="none" stroke="#567bd8" stroke-width="2" stroke-dasharray="5,2" d="M372,-36C372,-36 342,-36 342,-36 336,-36 330,-30 330,-24 330,-24 330,-12 330,-12 330,-6 336,0 342,0 342,0 372,0 372,0 378,0 384,-6 384,-12 384,-12 384,-24 384,-24 384,-30 378,-36 372,-36"/>
<text text-anchor="middle" x="357" y="-15" font-family="sans" font-size="10.00" fill="#000000">sort</text>
</g>
<!-- 8&#45;&gt;10 -->
<g id="edge9" class="edge">
<title>8&#45;&gt;10</title>
<path fill="none" stroke="#c0c0c0" stroke-width="2" d="M357,-71.8314C357,-64.131 357,-54.9743 357,-46.4166"/>
<polygon fill="#c0c0c0" stroke="#c0c0c0" stroke-width="2" points="360.5001,-46.4132 357,-36.4133 353.5001,-46.4133 360.5001,-46.4132"/>
</g>
<!-- 9&#45;&gt;7 -->
<g id="edge6" class="edge">
<title>9&#45;&gt;7</title>
<path fill="none" stroke="#c0c0c0" stroke-width="2" d="M311.9157,-143.8314C307.9385,-135.8771 303.1845,-126.369 298.7861,-117.5723"/>
<polygon fill="#c0c0c0" stroke="#c0c0c0" stroke-width="2" points="301.8093,-115.7923 294.2066,-108.4133 295.5483,-118.9228 301.8093,-115.7923"/>
</g>
<!-- 9&#45;&gt;8 -->
<g id="edge7" class="edge">
<title>9&#45;&gt;8</title>
<path fill="none" stroke="#c0c0c0" stroke-width="2" d="M330.0843,-143.8314C334.0615,-135.8771 338.8155,-126.369 343.2139,-117.5723"/>
<polygon fill="#c0c0c0" stroke="#c0c0c0" stroke-width="2" points="346.4517,-118.9228 347.7934,-108.4133 340.1907,-115.7923 346.4517,-118.9228"/>
</g>
</g>
</svg>
